<svg width="104" height="104" viewBox="0 0 104 104" fill="none" xmlns="http://www.w3.org/2000/svg">
<path d="M51.675 94.3313V54.1938L91.65 37.5376V79.0563L51.675 94.3313Z" fill="#F2F3F5"/>
<path d="M12.35 78.975L51.675 94.3312V54.1937L11.6188 37.375L12.35 78.975Z" fill="#E5E6EB"/>
<path d="M31.7895 25.4571L31.0947 17.4816L34 19.5061L31.7895 25.4571ZM27.1158 16.5L30.7158 26.5L22.7579 20.181L27.1158 16.5ZM22 22.819L28.8842 26.5L22.7579 25.8252L22 22.819Z" fill="#A9AEB8"/>
<path d="M51.675 54.1937L41.275 75.8875L1.46252 59.3937L11.6188 37.375L51.675 54.1937Z" fill="#F7F8FA"/>
<path d="M51.675 22.1001L11.6188 37.3751L51.675 54.1126V22.1001Z" fill="#F2F3F5"/>
<path d="M52 54.1562L63.1313 75.7687L103.106 59.3562L91.8937 37.5L52 54.1562Z" fill="#F7F8FA"/>
<path d="M91.65 37.5376L51.675 22.1001V54.1126L91.65 37.5376Z" fill="#E5E6EB"/>
<path fill-rule="evenodd" clip-rule="evenodd" d="M50.5504 48.2704C51.6769 48.1023 52.7272 47.8347 53.7016 47.4683L53.8473 47.4126L54.081 48.1674C53.0385 48.5732 51.92 48.8706 50.7261 49.0601L50.5551 49.0864L50.5504 48.2704ZM57.157 45.5186L57.3307 45.4915L57.5091 45.4619V45.4619L57.516 45.4605L57.9559 45.9038C57.0712 46.6911 56.0878 47.3436 55.0076 47.8604L54.872 47.9243L54.5534 47.1769C55.4641 46.754 56.2991 46.2286 57.0596 45.6002L57.157 45.5186ZM46.3899 48.4855C47.4984 48.5274 48.5528 48.4983 49.553 48.3984L49.7399 48.3788L49.6885 49.1946C48.6481 49.3086 47.5553 49.3482 46.4101 49.3139L46.1948 49.3066L46.3899 48.4855ZM63.179 42.7896L63.4859 43.5468C62.4023 44.0323 61.3363 44.4344 60.2923 44.7539L60.0968 44.8129L59.9199 44.0075C60.9151 43.712 61.9336 43.337 62.9713 42.8818L63.179 42.7896ZM59.9744 42.0182L60.7403 42.3412C60.2932 43.129 59.7955 43.8499 59.247 44.5035L59.2391 44.5126L59.3299 45.0689C58.7743 45.2133 58.2267 45.3338 57.6883 45.4306L57.516 45.4605L57.381 45.3246C57.3106 45.3873 57.2395 45.449 57.1678 45.5098L57.1569 45.5187L57.1529 45.5195C56.7388 45.5825 56.3305 45.6312 55.9284 45.6657L55.7564 45.6796L55.8032 44.8332C56.5443 44.7768 57.3095 44.6688 58.0956 44.5084L58.1803 44.4907L58.2245 44.4433C58.8437 43.7689 59.4011 43.0059 59.8967 42.1535L59.9744 42.0182ZM58.1802 44.4905L58.1262 44.5488L58.0269 44.6531V44.6531L58.6472 45.1702C58.8191 44.992 58.9865 44.8079 59.1496 44.618L59.2391 44.5124L59.1969 44.2524C58.8874 44.3328 58.5808 44.4054 58.2773 44.4702L58.1802 44.4905ZM67.0102 40.7352L67.4022 41.3656C66.4378 41.9587 65.4833 42.4908 64.541 42.9624L64.3238 43.0701L64.0229 42.3894C64.934 41.9416 65.8585 41.4343 66.7941 40.8671L67.0102 40.7352ZM42.2279 47.7775C43.2826 47.9988 44.2965 48.1651 45.2697 48.2764L45.4776 48.2994L45.2841 49.1369C44.2884 49.0304 43.253 48.8677 42.178 48.6489L41.947 48.6011L42.2279 47.7775ZM51.7262 44.5257C52.6764 44.7448 53.7166 44.8478 54.8292 44.8272L54.9814 44.8236L54.8729 45.6625C53.6762 45.6966 52.552 45.5975 51.5199 45.3723L51.3858 45.3422L51.7262 44.5257ZM70.7766 38.1847L71.2705 38.7705C70.3419 39.4703 69.419 40.1191 68.5032 40.7171L68.2744 40.8656L67.8502 40.2311C68.7426 39.6559 69.6428 39.0305 70.5498 38.3547L70.7766 38.1847ZM38.2126 46.8784C39.2193 47.1776 40.1956 47.4355 41.1413 47.6521L41.3771 47.7054L41.0696 48.5257C40.1106 48.312 39.1218 48.0564 38.103 47.7591L37.8477 47.6839L38.2126 46.8784ZM74.1837 35.4402L74.7444 35.9737C73.8997 36.7215 73.0576 37.4275 72.2189 38.0919L71.9902 38.272L71.4811 37.6957C72.296 37.057 73.1149 36.3777 73.937 35.6575L74.1837 35.4402ZM48.2272 42.877C48.9048 43.4593 49.7407 43.9319 50.7052 44.2704L50.8129 44.3075L50.4354 45.0823C49.371 44.7231 48.441 44.2136 47.6797 43.5786L47.5988 43.5101L48.2272 42.877ZM61.7269 38.2148L62.5939 38.3379C62.2346 39.4253 61.8158 40.4342 61.3369 41.3645L61.2518 41.5279L60.4449 41.264C60.9056 40.3908 61.3113 39.4391 61.6618 38.4089L61.7269 38.2148ZM77.3278 32.3242L77.9557 32.8372C77.1917 33.6232 76.4281 34.3737 75.6651 35.089L75.4109 35.3262L74.8221 34.775C75.5727 34.0788 76.3245 33.3475 77.077 32.581L77.3278 32.3242ZM34.4235 45.5932C35.3658 45.9272 36.2851 46.2299 37.1813 46.5014L37.4495 46.5819L37.0653 47.3698C36.1614 47.1009 35.2348 46.8005 34.2855 46.4687L34 46.3683L34.4235 45.5932ZM45.6596 40.0869L46.4967 39.8697C46.6662 40.7453 47.0772 41.5707 47.7044 42.2917L47.7679 42.3634L47.1 42.9218C46.3749 42.1149 45.89 41.1806 45.6786 40.1808L45.6596 40.0869ZM62.6552 34.2492L62.712 34.2503L63.5563 34.1475L63.5553 34.2377L63.516 34.4787C63.3517 35.4629 63.1515 36.3988 62.9151 37.2863L62.8599 37.4902L61.984 37.3833C62.2355 36.4685 62.4472 35.4974 62.619 34.4702L62.6503 34.2785L62.6505 34.2578L62.6537 34.2573L62.6552 34.2492ZM80.3022 29.1108L80.9619 29.5665C80.252 30.3718 79.5417 31.1477 78.8316 31.8943L78.5653 32.1729L77.9362 31.6839C78.637 30.9544 79.3381 30.1957 80.0393 29.4077L80.3022 29.1108ZM62.6536 34.2572L62.6502 34.2784L62.6501 34.3054L63.1029 34.2575L62.7119 34.2501L62.6536 34.2572ZM46.3177 35.897L47.1192 36.1437C46.8894 36.6061 46.7014 37.0798 46.5576 37.5626C46.4155 38.0399 46.3425 38.514 46.3376 38.9809L46.3377 39.0808L45.446 39.2114C45.4399 38.6346 45.5242 38.048 45.6997 37.4583C45.8437 36.9751 46.0277 36.5004 46.2499 36.036L46.3177 35.897ZM62.2753 30.3823C62.9445 31.1175 63.3469 32.0879 63.4574 33.2758L63.4654 33.3676L62.5361 33.5848C62.4519 32.5286 62.1177 31.6799 61.56 31.0412L61.5116 30.987L62.2753 30.3823ZM49.1842 32.2465L49.7645 32.8042C48.9316 33.5536 48.2222 34.3855 47.6659 35.2751L47.5972 35.3867L46.823 35.0617C47.4181 34.0822 48.1803 33.1678 49.0761 32.3448L49.1842 32.2465ZM58.2587 28.7405C59.5206 28.8098 60.6207 29.1573 61.4785 29.7794L61.5457 29.8291L60.9137 30.5092C60.1964 29.9688 59.2615 29.6574 58.1698 29.583L58.0731 29.577L58.2587 28.7405ZM52.9763 29.7052L53.2512 30.4197C52.2639 30.8647 51.3128 31.4294 50.4481 32.0876L50.3251 32.1823L49.8206 31.6062C50.7467 30.8848 51.7678 30.2641 52.8311 29.7715L52.9763 29.7052ZM53.8876 29.3833C55.0655 28.9508 56.2487 28.692 57.3624 28.6262L57.4859 28.6196L57.4023 29.4581C56.3994 29.5047 55.3224 29.7279 54.2423 30.1118L54.1126 30.1586L53.8876 29.3833Z" fill="#A9AEB8"/>
<path fill-rule="evenodd" clip-rule="evenodd" d="M88.2686 12.5L91 27.7879L85.5013 27.3021L83.6552 31.5L82.593 28.1695L82.2766 28.5139L81.9602 28.8559L81.0172 28.2683C81.5753 27.6674 82.1334 27.0545 82.6913 26.4295L87.2896 15.0827L79.9637 27.0566L75 26.4656L88.2686 12.5Z" fill="#A9AEB8"/>
</svg>
