<svg width="92" height="28" viewBox="0 0 92 28" fill="none" xmlns="http://www.w3.org/2000/svg">
<g clip-path="url(#clip0_174_9751)">
<path d="M7.47971 8.24397C8.89789 8.24397 10.1524 8.78943 11.0797 9.66215H13.807C12.4979 7.53488 10.1524 6.1167 7.47971 6.1167C3.3888 6.1167 0.0615234 9.44397 0.0615234 13.5349C0.0615234 17.6258 3.3888 20.9531 7.47971 20.9531C10.1524 20.9531 12.4979 19.5349 13.807 17.4076H11.0797C10.1524 18.2803 8.84334 18.8258 7.47971 18.8258C4.53425 18.8258 2.1888 16.4258 2.1888 13.5349C2.1888 10.644 4.5888 8.24397 7.47971 8.24397Z" fill="#090E17"/>
<path d="M24.8256 10.8621C23.8438 10.0985 22.6438 9.60754 21.2801 9.60754C18.1711 9.60754 15.6074 12.1712 15.6074 15.2803C15.6074 18.3894 18.1711 20.953 21.2801 20.953C22.3165 20.953 23.2983 20.6803 24.1165 20.1894V17.4075C23.462 18.2803 22.4256 18.8257 21.2801 18.8257C19.3165 18.8257 17.7347 17.2439 17.7347 15.2803C17.7347 13.3166 19.3165 11.7348 21.2801 11.7348C23.2438 11.7348 24.8256 13.3166 24.8256 15.2803V18.1166H26.9529V9.66209H24.8256V10.8621Z" fill="#090E17"/>
<path d="M26.9525 18.8262H24.8252V20.9534H26.9525V18.8262Z" fill="#F24A00"/>
<path d="M31.2074 9.66211H29.0801V21.0076H31.2074V9.66211Z" fill="#090E17"/>
<path d="M51.7708 8.95288H49.6436V21.0074H51.7708V8.95288Z" fill="#090E17"/>
<path d="M39.7162 9.66235C38.4616 9.66235 37.3162 10.2078 36.5525 11.0805C35.7889 10.2078 34.6434 9.66235 33.3889 9.66235C32.898 9.66235 32.4071 9.77144 31.9707 9.88054V12.3351C32.3525 12.0078 32.8434 11.7896 33.3889 11.7896C34.5343 11.7896 35.5162 12.7169 35.5162 13.9169V21.0078H37.6434V13.9169C37.6434 12.7714 38.5707 11.7896 39.7707 11.7896C40.9162 11.7896 41.898 12.7169 41.898 13.9169V21.0078H44.0252V13.9169C43.9707 11.5714 42.0616 9.66235 39.7162 9.66235Z" fill="#090E17"/>
<path d="M73.0433 9.66211H70.916V21.0076H73.0433V9.66211Z" fill="#090E17"/>
<path d="M68.7884 9.66211H66.6611V21.0076H68.7884V9.66211Z" fill="#090E17"/>
<path d="M75.1701 9.66211C74.6792 9.66211 74.1883 9.7712 73.752 9.88029V12.3348C74.1338 12.0076 74.6247 11.7894 75.1701 11.7894C76.3156 11.7894 77.2974 12.7167 77.2974 13.9167V21.0076H79.4247V13.9167C79.4247 11.5712 77.5156 9.66211 75.1701 9.66211Z" fill="#090E17"/>
<path d="M83.679 6.1167H81.5518V21.0076H83.679V6.1167Z" fill="#090E17"/>
<path d="M60.2795 9.66235C59.7886 9.66235 59.2977 9.77144 58.8613 9.88054V12.3351C59.2431 12.0078 59.7341 11.7896 60.2795 11.7896C61.425 11.7896 62.4068 12.7169 62.4068 13.9169V21.0078H64.5341V13.9169C64.5341 11.5714 62.625 9.66235 60.2795 9.66235Z" fill="#090E17"/>
<path d="M46.0977 6.1167V8.24397H56.0249V20.9531H58.1522V8.24397V6.1167H46.0977Z" fill="#090E17"/>
<path d="M85.534 15.2803L90.8249 9.66211H87.8794L84.334 13.4257V17.0803L88.2613 20.953H91.2613L85.534 15.2803Z" fill="#090E17"/>
<path d="M66.9827 5.95284L65.4785 7.45703L66.9827 8.96123L68.4869 7.45703L66.9827 5.95284Z" fill="#F24A00"/>
<path d="M69.7965 3.70749L68.1904 4.63477L69.1177 6.2408L70.7237 5.31353L69.7965 3.70749Z" fill="#F24A00"/>
<path d="M67.5259 1.52495L65.998 1.93433L66.4074 3.4622L67.9353 3.05283L67.5259 1.52495Z" fill="#F24A00"/>
</g>
<defs>
<clipPath id="clip0_174_9751">
<rect width="92" height="22.4889" fill="white"/>
</clipPath>
</defs>
</svg>
